<mxfile host="app.diagrams.net" modified="2023-08-17T16:30:28.071Z" agent="Mozilla/5.0 (Macintosh; Intel Mac OS X 10_15_7) AppleWebKit/537.36 (KHTML, like Gecko) Chrome/115.0.0.0 Safari/537.36" etag="x3-Ug62nCXC_UQ9BQKx5" version="21.6.8" type="github">
  <diagram name="第 1 页" id="IDC6OgUZG76HqQoy6pAl">
    <mxGraphModel dx="1306" dy="830" grid="1" gridSize="10" guides="1" tooltips="1" connect="1" arrows="1" fold="1" page="1" pageScale="1" pageWidth="827" pageHeight="1169" math="0" shadow="0">
      <root>
        <mxCell id="0" />
        <mxCell id="1" parent="0" />
        <mxCell id="8EhN2QBnAJq9SpPhxFZ0-1" value="Trade" style="rounded=0;whiteSpace=wrap;html=1;align=center;verticalAlign=top;" vertex="1" parent="1">
          <mxGeometry x="40" y="40" width="440" height="640" as="geometry" />
        </mxCell>
        <mxCell id="8EhN2QBnAJq9SpPhxFZ0-2" value="Channel Gateway" style="rounded=0;whiteSpace=wrap;html=1;align=center;verticalAlign=top;" vertex="1" parent="1">
          <mxGeometry x="520" y="40" width="440" height="640" as="geometry" />
        </mxCell>
        <mxCell id="8EhN2QBnAJq9SpPhxFZ0-3" value="Channel" style="rounded=0;whiteSpace=wrap;html=1;align=center;verticalAlign=top;" vertex="1" parent="1">
          <mxGeometry x="1070" y="380" width="440" height="640" as="geometry" />
        </mxCell>
        <mxCell id="8EhN2QBnAJq9SpPhxFZ0-4" value="trade order" style="rounded=0;whiteSpace=wrap;html=1;" vertex="1" parent="1">
          <mxGeometry x="180" y="280" width="120" height="60" as="geometry" />
        </mxCell>
        <mxCell id="8EhN2QBnAJq9SpPhxFZ0-12" style="edgeStyle=orthogonalEdgeStyle;rounded=0;orthogonalLoop=1;jettySize=auto;html=1;entryX=0;entryY=0.5;entryDx=0;entryDy=0;curved=1;" edge="1" parent="1" source="8EhN2QBnAJq9SpPhxFZ0-5" target="8EhN2QBnAJq9SpPhxFZ0-6">
          <mxGeometry relative="1" as="geometry" />
        </mxCell>
        <mxCell id="8EhN2QBnAJq9SpPhxFZ0-5" value="payment order" style="rounded=0;whiteSpace=wrap;html=1;" vertex="1" parent="1">
          <mxGeometry x="180" y="380" width="120" height="60" as="geometry" />
        </mxCell>
        <mxCell id="8EhN2QBnAJq9SpPhxFZ0-13" style="edgeStyle=orthogonalEdgeStyle;rounded=0;orthogonalLoop=1;jettySize=auto;html=1;entryX=0;entryY=0.5;entryDx=0;entryDy=0;curved=1;" edge="1" parent="1" source="8EhN2QBnAJq9SpPhxFZ0-6" target="8EhN2QBnAJq9SpPhxFZ0-8">
          <mxGeometry relative="1" as="geometry" />
        </mxCell>
        <mxCell id="8EhN2QBnAJq9SpPhxFZ0-14" style="edgeStyle=orthogonalEdgeStyle;rounded=0;orthogonalLoop=1;jettySize=auto;html=1;entryX=0;entryY=0.5;entryDx=0;entryDy=0;curved=1;" edge="1" parent="1" source="8EhN2QBnAJq9SpPhxFZ0-6" target="8EhN2QBnAJq9SpPhxFZ0-10">
          <mxGeometry relative="1" as="geometry" />
        </mxCell>
        <mxCell id="8EhN2QBnAJq9SpPhxFZ0-6" value="channel order" style="rounded=0;whiteSpace=wrap;html=1;" vertex="1" parent="1">
          <mxGeometry x="680" y="330" width="120" height="60" as="geometry" />
        </mxCell>
        <mxCell id="8EhN2QBnAJq9SpPhxFZ0-7" value="reconciliation file" style="shape=document;whiteSpace=wrap;html=1;boundedLbl=1;" vertex="1" parent="1">
          <mxGeometry x="1230" y="815" width="120" height="80" as="geometry" />
        </mxCell>
        <mxCell id="8EhN2QBnAJq9SpPhxFZ0-8" value="order" style="rounded=0;whiteSpace=wrap;html=1;" vertex="1" parent="1">
          <mxGeometry x="1230" y="735" width="120" height="60" as="geometry" />
        </mxCell>
        <mxCell id="8EhN2QBnAJq9SpPhxFZ0-9" value="reconciliation file" style="shape=document;whiteSpace=wrap;html=1;boundedLbl=1;" vertex="1" parent="1">
          <mxGeometry x="1230" y="585" width="120" height="80" as="geometry" />
        </mxCell>
        <mxCell id="8EhN2QBnAJq9SpPhxFZ0-17" style="edgeStyle=orthogonalEdgeStyle;rounded=0;orthogonalLoop=1;jettySize=auto;html=1;entryX=0.5;entryY=0;entryDx=0;entryDy=0;curved=1;" edge="1" parent="1" source="8EhN2QBnAJq9SpPhxFZ0-10" target="8EhN2QBnAJq9SpPhxFZ0-9">
          <mxGeometry relative="1" as="geometry" />
        </mxCell>
        <mxCell id="8EhN2QBnAJq9SpPhxFZ0-10" value="order" style="rounded=0;whiteSpace=wrap;html=1;" vertex="1" parent="1">
          <mxGeometry x="1120.5" y="460" width="120" height="60" as="geometry" />
        </mxCell>
        <mxCell id="8EhN2QBnAJq9SpPhxFZ0-11" value="&lt;div style=&quot;text-align: left;&quot;&gt;&lt;span style=&quot;background-color: initial;&quot;&gt;Reconciliation File Parsing&lt;/span&gt;&lt;/div&gt;" style="rounded=0;whiteSpace=wrap;html=1;align=center;verticalAlign=top;" vertex="1" parent="1">
          <mxGeometry x="520" y="720" width="440" height="640" as="geometry" />
        </mxCell>
        <mxCell id="8EhN2QBnAJq9SpPhxFZ0-15" value="Reconciliation" style="rounded=0;whiteSpace=wrap;html=1;align=center;verticalAlign=top;" vertex="1" parent="1">
          <mxGeometry x="40" y="720" width="440" height="640" as="geometry" />
        </mxCell>
        <mxCell id="8EhN2QBnAJq9SpPhxFZ0-18" style="edgeStyle=orthogonalEdgeStyle;rounded=0;orthogonalLoop=1;jettySize=auto;html=1;entryX=0.5;entryY=0;entryDx=0;entryDy=0;curved=1;exitX=0.5;exitY=1;exitDx=0;exitDy=0;" edge="1" parent="1" source="8EhN2QBnAJq9SpPhxFZ0-16" target="8EhN2QBnAJq9SpPhxFZ0-9">
          <mxGeometry relative="1" as="geometry" />
        </mxCell>
        <mxCell id="8EhN2QBnAJq9SpPhxFZ0-16" value="" style="shape=image;html=1;verticalAlign=top;verticalLabelPosition=bottom;labelBackgroundColor=#ffffff;imageAspect=0;aspect=fixed;image=https://cdn4.iconfinder.com/data/icons/online-marketing-hand-drawn-vol-1/52/coin__dollar__money__payment__finance__fund__cash-128.png" vertex="1" parent="1">
          <mxGeometry x="1400" y="445" width="90" height="90" as="geometry" />
        </mxCell>
      </root>
    </mxGraphModel>
  </diagram>
</mxfile>
